<svg width="100" height="88" viewBox="0 0 100 88" fill="none" xmlns="http://www.w3.org/2000/svg">
<path d="M37.5 28.3534C37.5 30.8398 36.5123 33.2244 34.7541 34.9825C32.996 36.7407 30.6114 37.7284 28.125 37.7284C25.6386 37.7284 23.254 36.7407 21.4959 34.9825C19.7377 33.2244 18.75 30.8398 18.75 28.3534C18.75 25.867 19.7377 23.4824 21.4959 21.7243C23.254 19.9661 25.6386 18.9784 28.125 18.9784C30.6114 18.9784 32.996 19.9661 34.7541 21.7243C36.5123 23.4824 37.5 25.867 37.5 28.3534Z" fill="#BBBBBB"/>
<path d="M12.5 0.228394C9.18479 0.228394 6.00537 1.54535 3.66117 3.88956C1.31696 6.23376 0 9.41319 0 12.7284V75.2284C0 78.5436 1.31696 81.723 3.66117 84.0672C6.00537 86.4114 9.18479 87.7284 12.5 87.7284H87.5C90.8152 87.7284 93.9946 86.4114 96.3388 84.0672C98.683 81.723 100 78.5436 100 75.2284V12.7284C100 9.41319 98.683 6.23376 96.3388 3.88956C93.9946 1.54535 90.8152 0.228394 87.5 0.228394H12.5ZM87.5 6.47839C89.1576 6.47839 90.7473 7.13687 91.9194 8.30898C93.0915 9.48108 93.75 11.0708 93.75 12.7284V53.3534L70.1438 41.1846C69.5576 40.891 68.894 40.7892 68.2469 40.8935C67.5997 40.9978 67.0017 41.303 66.5375 41.7659L43.35 64.9534L26.725 53.8784C26.1248 53.4788 25.4048 53.299 24.6871 53.3696C23.9695 53.4403 23.2983 53.7569 22.7875 54.2659L6.25 68.9784V12.7284C6.25 11.0708 6.90848 9.48108 8.08058 8.30898C9.25269 7.13687 10.8424 6.47839 12.5 6.47839H87.5Z" fill="#BBBBBB"/>
</svg>
