<svg width="40" height="41" viewBox="0 0 40 41" fill="none" xmlns="http://www.w3.org/2000/svg">
<path d="M39.1691 16.8114C38.2685 16.1866 36.2049 15.9523 34.5916 16.2647C34.4041 14.7026 33.5411 13.336 32.0402 12.1254L31.1774 11.5006L30.5769 12.3987C29.8266 13.5703 29.4514 15.2105 29.5639 16.7725C29.6014 17.3191 29.789 18.2954 30.3518 19.1545C29.8266 19.4669 28.7385 19.8575 27.3128 19.8575H0.185931L0.110951 20.1699C-0.151789 21.7318 -0.151789 26.6131 2.92486 30.3619C5.25109 33.2125 8.70295 34.6574 13.2428 34.6574C23.0729 34.6574 30.3518 29.9322 33.7662 21.3803C35.1169 21.4194 38.0059 21.3803 39.4693 18.4514C39.5068 18.3733 39.5817 18.2171 39.8443 17.6315L39.9944 17.3191L39.1691 16.8114ZM21.8723 5.79932H17.7453V9.70433H21.8723V5.79932ZM21.8723 10.4854H17.7453V14.3904H21.8723V10.4852V10.4854ZM16.9947 10.4854H12.8677V14.3904H16.9947V10.4852V10.4854ZM12.1172 10.4854H7.99002V14.3904H12.1172V10.4852V10.4854ZM7.2396 15.1714H3.11246V19.0764H7.23945V15.1713L7.2396 15.1714ZM12.1172 15.1714H7.99002V19.0764H12.1172V15.1713V15.1714ZM16.9947 15.1714H12.8677V19.0764H16.9947V15.1713V15.1714ZM21.8724 15.1714H17.7451V19.0764H21.8724V15.1713V15.1714ZM26.75 15.1714H22.6227V19.0764H26.75V15.1713V15.1714Z" fill="#2396ED"/>
</svg>
