<svg width="19" height="13" viewBox="0 0 19 13" fill="none" xmlns="http://www.w3.org/2000/svg">
<path d="M9.16667 0.478394C5 0.478394 1.44167 3.07006 0 6.72839C1.44167 10.3867 5 12.9784 9.16667 12.9784C13.3333 12.9784 16.8917 10.3867 18.3333 6.72839C16.8917 3.07006 13.3333 0.478394 9.16667 0.478394ZM9.16667 10.8951C6.86667 10.8951 5 9.02839 5 6.72839C5 4.42839 6.86667 2.56173 9.16667 2.56173C11.4667 2.56173 13.3333 4.42839 13.3333 6.72839C13.3333 9.02839 11.4667 10.8951 9.16667 10.8951ZM9.16667 4.22839C7.78333 4.22839 6.66667 5.34506 6.66667 6.72839C6.66667 8.11173 7.78333 9.22839 9.16667 9.22839C10.55 9.22839 11.6667 8.11173 11.6667 6.72839C11.6667 5.34506 10.55 4.22839 9.16667 4.22839Z" fill="white"/>
</svg>
