<svg width="14" height="23" viewBox="0 0 14 23" fill="none" xmlns="http://www.w3.org/2000/svg">
<path d="M0.68203 3.25574V19.9956L13.4164 22.6659V0.790894L0.68203 3.25574ZM9.20391 14.4557C8.96569 14.7916 8.64894 15.064 8.28127 15.2494C7.9136 15.4347 7.50618 15.5273 7.09453 15.519C6.69324 15.5261 6.29616 15.4363 5.93707 15.257C5.57798 15.0777 5.2675 14.8144 5.03203 14.4893C4.47358 13.7097 4.19422 12.7645 4.23906 11.8065C4.19155 10.8016 4.47596 9.80886 5.04844 8.98152C5.28966 8.63928 5.61138 8.36164 5.98523 8.17308C6.35908 7.98452 6.77358 7.89083 7.19219 7.90027C7.59057 7.89227 7.98483 7.98219 8.34035 8.16213C8.69587 8.34207 9.00179 8.60653 9.23125 8.9323C9.78411 9.72889 10.0587 10.6856 10.0125 11.6542C10.0612 12.6519 9.77675 13.6374 9.20391 14.4557Z" fill="white"/>
</svg>
